<svg width="480" height="480" viewBox="0 0 480 480" fill="none" xmlns="http://www.w3.org/2000/svg">
<rect x="16" y="190" width="186.667" height="99.5556" fill="black"/>
<rect x="28.4444" y="202.444" width="12.4444" height="74.6667" fill="white"/>
<rect x="28.4444" y="202.444" width="74.6667" height="12.4444" fill="white"/>
<rect x="115.556" y="202.444" width="12.4444" height="74.6667" fill="white"/>
<rect x="177.778" y="202.444" width="12.4444" height="37.3333" fill="white"/>
<rect x="115.556" y="202.444" width="74.6667" height="12.4444" fill="white"/>
<rect x="115.556" y="264.667" width="74.6667" height="12.4444" fill="white"/>
<rect x="115.556" y="227.333" width="74.6667" height="12.4444" fill="white"/>
<rect x="215.111" y="202.444" width="12.4444" height="74.6667" fill="black"/>
<rect x="215.111" y="202.444" width="74.6667" height="12.4444" fill="black"/>
<rect x="215.111" y="264.667" width="74.6667" height="12.4444" fill="black"/>
<rect x="376.889" y="202.444" width="12.4444" height="74.6667" transform="rotate(90 376.889 202.444)" fill="black"/>
<rect x="376.889" y="227.333" width="12.4444" height="74.6667" transform="rotate(90 376.889 227.333)" fill="black"/>
<rect x="376.889" y="202.444" width="74.6667" height="12.4444" transform="rotate(90 376.889 202.444)" fill="black"/>
<rect x="314.667" y="202.444" width="74.6667" height="12.4444" transform="rotate(90 314.667 202.444)" fill="black"/>
<rect x="464" y="202.444" width="12.4444" height="74.6667" transform="rotate(90 464 202.444)" fill="black"/>
<rect x="464" y="227.333" width="12.4444" height="74.6667" transform="rotate(90 464 227.333)" fill="black"/>
<rect x="464" y="202.444" width="37.3333" height="12.4444" transform="rotate(90 464 202.444)" fill="black"/>
<rect x="401.778" y="202.444" width="74.6667" height="12.4444" transform="rotate(90 401.778 202.444)" fill="black"/>
</svg>
